<svg width="19" height="20" viewBox="0 0 19 20" fill="none" xmlns="http://www.w3.org/2000/svg">
<path d="M10.5053 6.75635C6.73241 7.79087 3.96025 9.74403 2.24506 12.4954C0.52987 15.2467 2.1787 17.0402 4.93211 16.808C7.68552 16.5758 12.2966 15.0166 15.05 12.9599C17.8035 10.9031 17.6707 9.44345 17.2063 8.3819C16.7419 7.32034 14.6188 5.62842 10.5053 6.75635Z" fill="#FAB13D"/>
<path fill-rule="evenodd" clip-rule="evenodd" d="M1.90891 12.2859C3.68586 9.4355 6.54946 7.43047 10.4004 6.37455C14.6429 5.21124 17.0027 6.92951 17.5687 8.22319C17.8245 8.80792 18.0047 9.54408 17.7099 10.4234C17.421 11.2857 16.6953 12.2247 15.2867 13.2769C13.8692 14.3358 11.9902 15.2557 10.1273 15.9397C8.26475 16.6234 6.38776 17.0824 4.96513 17.2024C3.51534 17.3247 2.24527 16.9226 1.58988 15.9997C0.918827 15.0546 1.00631 13.7338 1.90891 12.2859ZM2.24482 12.4953C3.96 9.74398 6.73217 7.79082 10.505 6.7563C14.6186 5.62837 16.7416 7.32029 17.2061 8.38184C17.6705 9.4434 17.8032 10.9031 15.0498 12.9598C12.2964 15.0166 7.68528 16.5757 4.93187 16.808C2.17846 17.0402 0.52963 15.2467 2.24482 12.4953Z" fill="#B7690D"/>
<path d="M5.20544 9.91914C3.65556 10.8676 2.67072 12.0968 2.2605 13.5458C1.85028 14.9948 2.81742 15.5822 4.01597 15.1233C5.21453 14.6643 5.4912 13.2593 6.4543 11.9863C7.4174 10.7133 8.45921 10.2306 8.45921 9.53252C8.45921 8.99389 6.89527 8.88502 5.20544 9.91914Z" fill="#FCC66F"/>
<path fill-rule="evenodd" clip-rule="evenodd" d="M4.62072 11.3271C4.78271 11.4739 4.79502 11.7243 4.64822 11.8863C4.05082 12.5455 3.79449 13.1126 3.59682 13.5499C3.57272 13.6033 3.54949 13.6547 3.52662 13.7041C3.43477 13.9024 3.1995 13.9888 3.00111 13.897C2.80273 13.8051 2.71636 13.5698 2.80821 13.3715C2.8295 13.3255 2.85174 13.2761 2.87538 13.2237C3.07592 12.7787 3.3776 12.1094 4.06161 11.3546C4.20841 11.1926 4.45873 11.1803 4.62072 11.3271Z" fill="#FFDFAD"/>
<path fill-rule="evenodd" clip-rule="evenodd" d="M3.51953 16.733C6.55842 16.1225 10.5432 14.5982 13.097 12.6905C16.172 10.3936 16.0238 8.76341 15.5051 7.57787C15.3719 7.27355 15.1168 6.92286 14.7333 6.59094C16.1378 6.96658 16.9417 7.77669 17.2065 8.3819C17.6709 9.44346 17.8036 10.9031 15.0502 12.9599C12.2968 15.0166 7.68567 16.5758 4.93226 16.808C4.41789 16.8514 3.94207 16.8241 3.51953 16.733Z" fill="#EDA024"/>
<path d="M7.58633 13.0925C6.84324 11.6329 4.64494 10.8699 3.63867 10.6708C4.01022 10.0605 4.76657 9.554 5.09831 9.37708C6.71718 10.3856 7.43152 12.2742 7.58633 13.0925Z" fill="#D08814"/>
<path d="M10.9279 11.7769C10.0601 9.80189 8.059 8.26534 7.05273 8.0663C7.6961 7.52767 8.95034 7.24077 9.28208 7.06384C11.1374 8.0663 10.7731 10.9586 10.9279 11.7769Z" fill="#A56112"/>
<path d="M14.1894 9.50259C13.3814 7.48272 12.3976 7.05885 11.5311 6.50978C11.9899 6.31568 13.1727 6.36084 13.546 6.31568C14.324 7.39294 14.324 8.26075 14.1894 9.50259Z" fill="#9C5807"/>
<path fill-rule="evenodd" clip-rule="evenodd" d="M4.94394 9.39353C4.96699 9.28668 5.07229 9.21875 5.17914 9.24179C5.61786 9.33642 6.17474 9.69333 6.68568 10.2893C7.20114 10.8905 7.68255 11.7488 7.96277 12.8736C7.9892 12.9796 7.92464 13.087 7.81857 13.1135C7.71251 13.1399 7.60511 13.0753 7.57868 12.9693C7.31279 11.902 6.85908 11.0996 6.38517 10.5469C5.90674 9.98888 5.42002 9.69869 5.09568 9.62873C4.98883 9.60568 4.9209 9.50038 4.94394 9.39353Z" fill="#FFDFAC"/>
<path fill-rule="evenodd" clip-rule="evenodd" d="M9.38859 7.02615C9.45069 6.93621 9.57396 6.91364 9.6639 6.97574C10.0236 7.22413 10.4352 7.78856 10.7558 8.57302C11.0797 9.36541 11.3204 10.4045 11.3204 11.6272C11.3204 11.7365 11.2318 11.8251 11.1225 11.8251C11.0132 11.8251 10.9245 11.7365 10.9245 11.6272C10.9245 10.456 10.6939 9.46775 10.3894 8.72279C10.0817 7.9699 9.70767 7.48698 9.439 7.30147C9.34905 7.23937 9.32648 7.1161 9.38859 7.02615Z" fill="#FFDFAC"/>
<path fill-rule="evenodd" clip-rule="evenodd" d="M13.543 6.28726C13.6124 6.2028 13.7371 6.19057 13.8216 6.25995C14.1817 6.55576 14.4365 7.05848 14.5729 7.62326C14.7103 8.19271 14.7337 8.85013 14.6083 9.48128C14.587 9.58849 14.4828 9.65812 14.3756 9.63681C14.2684 9.61551 14.1987 9.51132 14.22 9.40411C14.334 8.83082 14.3125 8.23143 14.1881 7.71614C14.0626 7.19617 13.8386 6.7862 13.5703 6.56582C13.4859 6.49644 13.4737 6.37173 13.543 6.28726Z" fill="#FFDFAC"/>
<path d="M14.1402 12.0852C14.0894 12.2927 13.924 12.4304 13.7709 12.3929C13.6178 12.3554 13.5348 12.1568 13.5857 11.9493C13.6365 11.7418 13.8019 11.604 13.955 11.6416C14.1082 11.6791 14.1911 11.8777 14.1402 12.0852Z" fill="#D48A15"/>
<path d="M12.7702 12.6064C12.7289 12.7749 12.5946 12.8868 12.4702 12.8563C12.3458 12.8259 12.2784 12.6645 12.3197 12.496C12.361 12.3274 12.4954 12.2155 12.6198 12.246C12.7442 12.2765 12.8115 12.4378 12.7702 12.6064Z" fill="#D48A15"/>
<path d="M13.7507 13.115C13.7094 13.2836 13.5751 13.3955 13.4507 13.365C13.3263 13.3345 13.2589 13.1732 13.3002 13.0046C13.3415 12.8361 13.4758 12.7242 13.6002 12.7547C13.7246 12.7851 13.792 12.9465 13.7507 13.115Z" fill="#D48A15"/>
<path d="M13.4011 11.2304C13.3598 11.3989 13.2255 11.5108 13.1011 11.4804C12.9767 11.4499 12.9093 11.2885 12.9506 11.12C12.9919 10.9515 13.1262 10.8395 13.2506 10.87C13.375 10.9005 13.4424 11.0618 13.4011 11.2304Z" fill="#D48A15"/>
<path d="M15.1052 11.6609C15.0639 11.8295 14.9296 11.9414 14.8052 11.9109C14.6808 11.8804 14.6134 11.7191 14.6547 11.5505C14.696 11.382 14.8303 11.2701 14.9547 11.3006C15.0791 11.331 15.1465 11.4924 15.1052 11.6609Z" fill="#D48A15"/>
<path d="M14.6219 10.9712C14.5754 11.1613 14.4239 11.2875 14.2836 11.2531C14.1433 11.2187 14.0673 11.0368 14.1139 10.8467C14.1605 10.6566 14.312 10.5304 14.4522 10.5648C14.5925 10.5992 14.6685 10.7811 14.6219 10.9712Z" fill="#D48A15"/>
<path d="M16.1483 11.0811C16.1017 11.2711 15.9502 11.3973 15.81 11.363C15.6697 11.3286 15.5937 11.1466 15.6403 10.9566C15.6869 10.7665 15.8383 10.6403 15.9786 10.6747C16.1189 10.709 16.1949 10.891 16.1483 11.0811Z" fill="#D48A15"/>
<path d="M15.7713 10.2683C15.7248 10.4584 15.5733 10.5846 15.433 10.5502C15.2927 10.5158 15.2167 10.3339 15.2633 10.1438C15.3099 9.95376 15.4614 9.82755 15.6017 9.86193C15.742 9.8963 15.8179 10.0782 15.7713 10.2683Z" fill="#D48A15"/>
<path d="M17.0887 10.1393C17.0421 10.3293 16.8907 10.4556 16.7504 10.4212C16.6101 10.3868 16.5341 10.2049 16.5807 10.0148C16.6273 9.82473 16.7788 9.69852 16.919 9.7329C17.0593 9.76728 17.1353 9.94922 17.0887 10.1393Z" fill="#D48A15"/>
<path d="M15.7226 11.9125C15.6921 12.0369 15.593 12.1195 15.5012 12.097C15.4094 12.0745 15.3596 11.9554 15.3901 11.8311C15.4206 11.7067 15.5197 11.6241 15.6115 11.6466C15.7033 11.6691 15.7531 11.7881 15.7226 11.9125Z" fill="#D48A15"/>
<path d="M14.6894 12.6906C14.6589 12.815 14.5598 12.8976 14.468 12.8751C14.3762 12.8526 14.3264 12.7335 14.3569 12.6091C14.3874 12.4847 14.4865 12.4021 14.5783 12.4246C14.6701 12.4471 14.7199 12.5662 14.6894 12.6906Z" fill="#D48A15"/>
<path d="M11.8544 14.2092C11.8239 14.3335 11.7248 14.4161 11.633 14.3936C11.5412 14.3711 11.4915 14.2521 11.522 14.1277C11.5524 14.0033 11.6516 13.9207 11.7434 13.9432C11.8352 13.9657 11.8849 14.0848 11.8544 14.2092Z" fill="#D48A15"/>
<path d="M12.9306 13.461C12.9001 13.5854 12.801 13.668 12.7092 13.6455C12.6174 13.623 12.5677 13.5039 12.5981 13.3795C12.6286 13.2551 12.7277 13.1725 12.8196 13.195C12.9114 13.2175 12.9611 13.3366 12.9306 13.461Z" fill="#D48A15"/>
<path d="M12.1356 13.3092C12.1108 13.4104 12.0302 13.4775 11.9556 13.4592C11.8809 13.4409 11.8405 13.3441 11.8653 13.243C11.8901 13.1418 11.9707 13.0746 12.0453 13.0929C12.12 13.1112 12.1604 13.2081 12.1356 13.3092Z" fill="#D48A15"/>
<path d="M12.4882 11.7608C12.4577 11.8852 12.3586 11.9678 12.2668 11.9453C12.175 11.9228 12.1253 11.8037 12.1557 11.6793C12.1862 11.5549 12.2854 11.4723 12.3772 11.4948C12.469 11.5173 12.5187 11.6364 12.4882 11.7608Z" fill="#D48A15"/>
<path d="M14.0292 10.4687C13.9987 10.5931 13.8996 10.6757 13.8078 10.6532C13.716 10.6307 13.6663 10.5116 13.6968 10.3872C13.7272 10.2628 13.8264 10.1802 13.9182 10.2027C14.01 10.2252 14.0597 10.3443 14.0292 10.4687Z" fill="#D48A15"/>
<path d="M15.0458 9.64543C15.0153 9.76982 14.9162 9.85241 14.8244 9.82992C14.7326 9.80742 14.6829 9.68835 14.7134 9.56396C14.7438 9.43958 14.843 9.35698 14.9348 9.37948C15.0266 9.40198 15.0763 9.52105 15.0458 9.64543Z" fill="#D48A15"/>
<path d="M16.1767 9.44548C16.1462 9.56987 16.0471 9.65246 15.9553 9.62996C15.8635 9.60747 15.8137 9.48839 15.8442 9.36401C15.8747 9.23963 15.9738 9.15703 16.0656 9.17953C16.1575 9.20203 16.2072 9.3211 16.1767 9.44548Z" fill="#D48A15"/>
<path d="M16.8896 9.36394C16.8591 9.48832 16.76 9.57092 16.6682 9.54842C16.5764 9.52592 16.5266 9.40685 16.5571 9.28247C16.5876 9.15808 16.6867 9.07549 16.7785 9.09799C16.8703 9.12048 16.9201 9.23955 16.8896 9.36394Z" fill="#D48A15"/>
</svg>
