<svg width="18" height="19" viewBox="0 0 18 19" fill="none" xmlns="http://www.w3.org/2000/svg">
<path d="M8.9099 8.52766C8.11044 9.7116 7.46162 9.73072 7.25562 11.6267C7.0074 13.9113 8.56178 15.807 10.7051 16.0665C12.8484 16.326 14.7497 15.029 14.9979 12.7444C15.2039 10.8484 14.5164 10.5847 13.9349 9.19751C13.2903 7.65986 14.0522 5.64485 11.7884 5.37079C9.33058 5.07325 9.85077 7.13427 8.9099 8.52766Z" fill="#A4D31F"/>
<path fill-rule="evenodd" clip-rule="evenodd" d="M8.05849 8.9621C8.22983 8.76994 8.40663 8.56227 8.59163 8.28829C8.79205 7.99148 8.92131 7.6492 9.04037 7.27378C9.06614 7.19251 9.09197 7.10758 9.1184 7.02065C9.20743 6.72785 9.30335 6.41237 9.42756 6.13754C9.59648 5.76382 9.84039 5.40639 10.2519 5.17769C10.6575 4.9523 11.1732 4.88127 11.8328 4.96111C12.4547 5.0364 12.9185 5.2378 13.2536 5.56568C13.5874 5.8923 13.7513 6.30362 13.8476 6.7102C13.919 7.01129 13.9596 7.34362 13.9976 7.65432C14.0092 7.74939 14.0206 7.84243 14.0325 7.93193C14.0861 8.33362 14.1536 8.70079 14.2919 9.03062C14.4273 9.35365 14.5694 9.61281 14.7093 9.8568C14.7313 9.89525 14.7537 9.9339 14.7761 9.97276C14.8927 10.1743 15.0127 10.3819 15.113 10.6002C15.3686 11.1567 15.496 11.777 15.3858 12.7913C15.1084 15.3443 12.9758 16.7564 10.6604 16.4761C8.32033 16.1928 6.59259 14.1086 6.86737 11.5797C6.97672 10.5732 7.21101 10.0182 7.55198 9.5566C7.68215 9.38035 7.82788 9.21853 7.96801 9.0629C7.99851 9.02903 8.02874 8.99546 8.05849 8.9621ZM8.24637 9.35234C8.4492 9.12695 8.67285 8.87841 8.90972 8.52761C9.20185 8.09498 9.35313 7.598 9.49643 7.12722C9.81466 6.08176 10.0935 5.16559 11.7883 5.37075C13.347 5.55945 13.4712 6.57357 13.6078 7.68891C13.6696 8.19339 13.7339 8.71858 13.9347 9.19747C14.1041 9.60166 14.2826 9.91047 14.4453 10.1921C14.841 10.8769 15.1437 11.4008 14.9977 12.7443C14.7495 15.0289 12.8482 16.3259 10.7049 16.0665C8.5616 15.807 7.00722 13.9112 7.25545 11.6266C7.40041 10.2924 7.76466 9.88766 8.24637 9.35234Z" fill="#5B7C14"/>
<path fill-rule="evenodd" clip-rule="evenodd" d="M8.07803 14.5994C8.38874 14.8005 8.73189 14.9617 9.10178 15.0747C11.174 15.7082 13.2537 14.7644 13.8597 12.5555C14.2161 11.2566 14.0004 10.6867 13.7185 9.94172C13.6027 9.63541 13.4755 9.2995 13.3724 8.87112C13.2502 8.36358 13.2698 7.83443 13.2887 7.32614C13.3025 6.95313 13.3159 6.59136 13.2726 6.25762C13.4819 6.66209 13.5434 7.16432 13.6077 7.68895C13.6695 8.19344 13.7338 8.71863 13.9345 9.19751C14.104 9.60171 14.2824 9.91051 14.4451 10.1921C14.8409 10.877 15.1436 11.4009 14.9976 12.7444C14.7494 15.029 12.8481 16.326 10.7048 16.0665C9.63015 15.9364 8.70358 15.395 8.07803 14.5994Z" fill="#92BC1B"/>
<path d="M9.94328 9.0741C10.3372 9.38066 10.2678 10.1855 9.78846 10.8717C9.30908 11.558 8.60118 11.8658 8.20731 11.5592C7.81344 11.2527 7.88275 10.4478 8.36213 9.76159C8.84151 9.07534 9.54941 8.76754 9.94328 9.0741Z" fill="#BBEB35"/>
<path d="M11.2205 5.74626C11.3567 5.90845 11.2614 6.23218 11.0078 6.46933C10.7542 6.70648 10.4382 6.76725 10.3021 6.60506C10.166 6.44288 10.2613 6.11915 10.5149 5.882C10.7685 5.64485 11.0844 5.58408 11.2205 5.74626Z" fill="#BBEB35"/>
<path fill-rule="evenodd" clip-rule="evenodd" d="M9.0476 10.0458C9.2039 10.2027 9.21007 10.4637 9.06137 10.6287C8.98823 10.7098 8.94645 10.7795 8.92379 10.836C8.83975 11.0458 8.61055 11.1439 8.41185 11.0552C8.21316 10.9665 8.12021 10.7245 8.20425 10.5148C8.27114 10.3479 8.37225 10.1969 8.49534 10.0603C8.64404 9.8953 8.89129 9.88879 9.0476 10.0458Z" fill="white"/>
<path d="M14.8391 3.29686C14.8391 3.29686 14.0686 4.41138 13.3431 4.70923C12.6176 5.00708 11.774 4.55524 11.774 4.55524C11.774 4.55524 12.1067 3.62048 12.8322 3.32263C13.5577 3.02478 14.8391 3.29686 14.8391 3.29686Z" fill="#87D623"/>
<path fill-rule="evenodd" clip-rule="evenodd" d="M15.1545 3.53987L14.8389 3.29681L14.9159 2.89258C15.0465 2.9203 15.1547 3.01633 15.203 3.14735C15.2512 3.27837 15.233 3.42632 15.1545 3.53987ZM14.3957 3.22649C14.6589 3.2586 14.8389 3.29681 14.8389 3.29681C14.8389 3.29681 14.7307 3.45336 14.5572 3.66479C14.2677 4.0175 13.7965 4.52296 13.3429 4.70918C12.6174 5.00703 11.7738 4.55519 11.7738 4.55519C11.7738 4.55519 12.1065 3.62044 12.832 3.32259C13.2856 3.13637 13.9565 3.17293 14.3957 3.22649ZM11.7738 4.55519C11.4081 4.41019 11.4082 4.41007 11.4082 4.40995L11.4083 4.40969L11.4085 4.40909L11.4091 4.40764L11.4105 4.40373C11.4116 4.40066 11.4131 4.39671 11.4149 4.39191C11.4185 4.38231 11.4235 4.36932 11.43 4.35332C11.4428 4.32138 11.4614 4.27724 11.4858 4.22414C11.5346 4.11843 11.6078 3.97452 11.7074 3.81934C11.9015 3.51689 12.2217 3.13073 12.6904 2.93831C13.1397 2.75383 13.7168 2.75538 14.1351 2.78671C14.3533 2.80305 14.5466 2.82919 14.6854 2.85121C14.755 2.86225 14.8114 2.87233 14.851 2.87977C14.8708 2.8835 14.8864 2.88656 14.8973 2.88877L14.9103 2.8914L14.914 2.89218L14.9156 2.89252L14.9159 2.89258C14.916 2.8926 14.9159 2.89258 14.8389 3.29681C15.1545 3.53987 15.1545 3.53981 15.1545 3.53987L15.1543 3.54014L15.1533 3.54153L15.151 3.54479L15.1432 3.55596C15.1365 3.56541 15.127 3.5788 15.1148 3.59566C15.0904 3.62936 15.0552 3.67702 15.011 3.73481C14.9227 3.85006 14.797 4.00718 14.6466 4.17479C14.3583 4.49622 13.9338 4.90899 13.4845 5.09347C13.0158 5.28589 12.5326 5.22956 12.1959 5.14501C12.0231 5.10164 11.877 5.04781 11.7734 5.00462C11.7214 4.98293 11.6795 4.96364 11.6495 4.94925C11.6346 4.94205 11.6225 4.93605 11.6137 4.93156C11.6093 4.92931 11.6057 4.92744 11.6029 4.92599L11.5994 4.92411L11.598 4.92342L11.5973 4.92301C11.5972 4.92295 11.5971 4.92289 11.7738 4.55519ZM11.4081 4.41019L11.7738 4.55519L11.5971 4.92289C11.4195 4.82779 11.3381 4.60694 11.4081 4.41019Z" fill="#156319"/>
<path d="M13.2955 4.59225C13.9123 4.33902 14.5813 3.42914 14.5813 3.42914C13.22 3.62478 12.2768 4.22392 11.9753 4.49904C11.9753 4.49904 12.6787 4.84549 13.2955 4.59225Z" fill="#79C01E"/>
<path d="M10.8422 3.30043C11.0804 3.43965 11.5774 4.54134 11.69 5.08403C11.6994 5.12931 11.8177 5.09748 11.81 5.05799C11.7935 4.56769 11.6422 3.37747 11.3798 2.95513C11.0205 2.93431 10.8546 3.19486 10.8422 3.30043Z" fill="#8C5936"/>
<path fill-rule="evenodd" clip-rule="evenodd" d="M10.6327 3.64876C10.5056 3.56392 10.4354 3.40884 10.4539 3.24992C10.4757 3.06359 10.591 2.88345 10.7333 2.76084C10.8946 2.62194 11.121 2.52716 11.4006 2.54336C11.5244 2.55054 11.6377 2.6194 11.7058 2.72891C11.8021 2.8839 11.8736 3.08205 11.9286 3.27315C11.9854 3.47078 12.0325 3.69019 12.0705 3.90545C12.1444 4.32369 12.1886 4.75353 12.1991 5.02367C12.2202 5.25097 12.0674 5.38574 12.0256 5.41801C11.9612 5.4676 11.8938 5.4923 11.8434 5.50456C11.794 5.51655 11.7177 5.52715 11.6318 5.50782C11.5496 5.48933 11.3574 5.4115 11.3078 5.17215C11.2612 4.94766 11.1242 4.57067 10.9621 4.22288C10.8825 4.05209 10.8025 3.90053 10.7324 3.78807C10.6972 3.73163 10.6683 3.69115 10.6468 3.66502C10.6405 3.65729 10.6358 3.65204 10.6327 3.64876ZM11.8094 5.05792C11.8094 5.05736 11.8094 5.0568 11.8093 5.05624C11.8061 4.96019 11.7976 4.83751 11.7842 4.69913C11.7601 4.44969 11.7199 4.14926 11.6645 3.86183C11.5935 3.4931 11.4977 3.14579 11.3791 2.95506C11.2744 2.94899 11.1861 2.96684 11.1132 2.9978C11.0358 3.03069 10.9758 3.07837 10.9321 3.12788C10.8759 3.19157 10.8465 3.25828 10.8416 3.30036C10.9558 3.36708 11.1293 3.6548 11.2916 3.99611C11.405 4.23489 11.513 4.49989 11.5911 4.7338C11.6313 4.85425 11.6637 4.96647 11.6848 5.06261C11.6864 5.06982 11.6879 5.07694 11.6894 5.08397C11.6988 5.12924 11.8171 5.09741 11.8094 5.05792ZM11.4185 5.05687C11.4185 5.08325 11.421 5.11129 11.4268 5.14095C11.4224 5.11844 11.4198 5.09558 11.419 5.07261C11.4189 5.06746 11.4187 5.06221 11.4185 5.05687Z" fill="#583A24"/>
<path d="M11.4554 3.00955C11.5102 3.11306 11.416 3.27865 11.2451 3.37941C11.0742 3.48017 10.8912 3.47794 10.8365 3.37443C10.7817 3.27092 10.8759 3.10533 11.0468 3.00457C11.2177 2.90381 11.4007 2.90604 11.4554 3.00955Z" fill="#C27A49"/>
<path d="M13.5898 11.5437C13.5685 11.7404 13.4 11.8816 13.2137 11.859C13.0273 11.8365 12.8935 11.6587 12.9149 11.462C12.9363 11.2652 13.1047 11.1241 13.2911 11.1466C13.4774 11.1692 13.6112 11.347 13.5898 11.5437Z" fill="#83A918"/>
<path d="M14.5248 12.3787C14.5034 12.5754 14.335 12.7166 14.1486 12.694C13.9623 12.6715 13.8285 12.4937 13.8499 12.297C13.8713 12.1002 14.0397 11.959 14.226 11.9816C14.4124 12.0042 14.5462 12.1819 14.5248 12.3787Z" fill="#83A918"/>
<path d="M14.4819 11.2005C14.4658 11.3481 14.3395 11.454 14.1997 11.4371C14.06 11.4201 13.9596 11.2868 13.9757 11.1393C13.9917 10.9917 14.118 10.8858 14.2578 10.9027C14.3976 10.9197 14.4979 11.053 14.4819 11.2005Z" fill="#83A918"/>
<path d="M14.3894 13.6254C14.368 13.8221 14.1996 13.9633 14.0132 13.9407C13.8268 13.9182 13.6931 13.7404 13.7144 13.5437C13.7358 13.347 13.9042 13.2058 14.0906 13.2283C14.277 13.2509 14.4107 13.4287 14.3894 13.6254Z" fill="#83A918"/>
<path d="M13.4544 12.7904C13.433 12.9872 13.2646 13.1283 13.0782 13.1058C12.8918 13.0832 12.7581 12.9054 12.7794 12.7087C12.8008 12.512 12.9692 12.3708 13.1556 12.3934C13.342 12.4159 13.4757 12.5937 13.4544 12.7904Z" fill="#83A918"/>
<path d="M13.5983 14.6123C13.577 14.8091 13.4085 14.9502 13.2222 14.9277C13.0358 14.9051 12.902 14.7273 12.9234 14.5306C12.9448 14.3339 13.1132 14.1927 13.2996 14.2153C13.4859 14.2378 13.6197 14.4156 13.5983 14.6123Z" fill="#83A918"/>
<path d="M12.644 13.9554C12.6226 14.1522 12.4542 14.2934 12.2678 14.2708C12.0814 14.2482 11.9477 14.0705 11.9691 13.8737C11.9904 13.677 12.1588 13.5358 12.3452 13.5584C12.5316 13.5809 12.6654 13.7587 12.644 13.9554Z" fill="#83A918"/>
<path d="M12.6676 15.3117C12.6516 15.4592 12.5252 15.5651 12.3855 15.5482C12.2457 15.5313 12.1454 15.3979 12.1614 15.2504C12.1774 15.1028 12.3037 14.9969 12.4435 15.0139C12.5833 15.0308 12.6836 15.1641 12.6676 15.3117Z" fill="#83A918"/>
<path d="M7.42578 7.90892C7.42578 7.90892 7.38648 9.23975 6.90726 9.83103C6.32967 10.5437 5.21773 10.2756 5.21773 10.2756C5.21773 10.2756 5.13515 9.22193 5.79203 8.51786C6.29732 7.97626 7.42578 7.90892 7.42578 7.90892Z" fill="#10BC17"/>
<path fill-rule="evenodd" clip-rule="evenodd" d="M7.71633 7.91846L7.42576 7.90889L7.40935 7.60253C7.49075 7.59767 7.57033 7.62911 7.6287 7.68918C7.68707 7.74926 7.71887 7.83244 7.71633 7.91846ZM7.13323 7.94343C7.30876 7.91588 7.42576 7.90889 7.42576 7.90889C7.42576 7.90889 7.42214 8.03129 7.40374 8.21834C7.36146 8.64807 7.24112 9.41904 6.90724 9.831C6.32965 10.5437 5.21771 10.2756 5.21771 10.2756C5.21771 10.2756 5.13513 9.2219 5.79201 8.51783C6.1346 8.15063 6.76365 8.00143 7.13323 7.94343ZM5.21771 10.2756C4.928 10.3009 4.92799 10.3008 4.92798 10.3007L4.92796 10.3004L4.92791 10.2998L4.92781 10.2984L4.92753 10.2944C4.92731 10.2912 4.92704 10.287 4.92675 10.2818C4.92617 10.2714 4.92548 10.2572 4.92491 10.2394C4.92376 10.2038 4.92304 10.1539 4.92445 10.0925C4.92726 9.97004 4.93859 9.79979 4.97265 9.60502C5.04018 9.21895 5.20122 8.71374 5.58488 8.30252C5.89857 7.96628 6.37683 7.79847 6.73268 7.71134C6.91766 7.66605 7.08495 7.63905 7.20602 7.62332C7.26674 7.61543 7.31634 7.61031 7.3513 7.60712C7.3688 7.60553 7.38267 7.60442 7.39248 7.60369C7.39739 7.60332 7.40128 7.60305 7.40411 7.60286L7.40755 7.60264L7.40906 7.60254L7.40935 7.60253C7.40942 7.60252 7.40935 7.60253 7.42576 7.90889C7.71633 7.91846 7.71633 7.91839 7.71633 7.91846L7.71631 7.91914L7.71627 7.92031L7.71614 7.92409C7.71603 7.92724 7.71587 7.93164 7.71564 7.93723C7.71518 7.94841 7.71446 7.96435 7.71338 7.98455C7.71122 8.02493 7.7076 8.08244 7.70172 8.15298C7.68999 8.29368 7.66909 8.48812 7.63227 8.70287C7.56154 9.11532 7.422 9.6679 7.12814 10.0305C6.76494 10.4786 6.24776 10.6026 5.8632 10.6268C5.66687 10.6392 5.49216 10.6266 5.36668 10.6111C5.30361 10.6033 5.25213 10.5947 5.21556 10.5878C5.19725 10.5843 5.18262 10.5813 5.17207 10.579C5.16679 10.5779 5.16252 10.5769 5.15933 10.5762L5.15534 10.5753L5.15395 10.575L5.15319 10.5748C5.15308 10.5748 5.15298 10.5747 5.21771 10.2756ZM4.928 10.3009L5.21771 10.2756L5.15298 10.5747C5.02946 10.545 4.93844 10.4342 4.928 10.3009Z" fill="#156319"/>
<path d="M6.71202 9.77912C7.11683 9.34523 7.22991 8.25601 7.22991 8.25601C6.19417 8.90452 5.73523 9.82645 5.5967 10.1673C5.5967 10.1673 6.30722 10.213 6.71202 9.77912Z" fill="#07A00E"/>
<path d="M3.0258 9.5069C3.0258 9.5069 3.89747 9.05909 4.44993 9.19167C5.11578 9.35147 5.34076 10.2457 5.34076 10.2457C5.34076 10.2457 4.69129 10.6819 4.0026 10.4621C3.47285 10.2931 3.0258 9.5069 3.0258 9.5069Z" fill="#13CA1B"/>
<path fill-rule="evenodd" clip-rule="evenodd" d="M2.89879 9.23102L3.02601 9.50693L2.77676 9.66486C2.7348 9.59107 2.72412 9.50208 2.74733 9.41959C2.77053 9.3371 2.82549 9.26868 2.89879 9.23102ZM3.19413 9.76285C3.08838 9.61662 3.02601 9.50693 3.02601 9.50693C3.02601 9.50693 3.13364 9.45164 3.29724 9.38566C3.5992 9.26388 4.09181 9.10571 4.45013 9.1917C5.11598 9.35151 5.34097 10.2458 5.34097 10.2458C5.34097 10.2458 4.69149 10.682 4.00281 10.4622C3.67093 10.3562 3.37151 10.0081 3.19413 9.76285ZM5.34097 10.2458C5.49702 10.5047 5.49693 10.5047 5.49684 10.5048L5.49665 10.5049L5.49622 10.5052L5.49517 10.5059L5.49235 10.5078C5.49015 10.5092 5.48731 10.5111 5.48384 10.5133C5.47692 10.5177 5.46749 10.5236 5.45571 10.5307C5.43217 10.5448 5.39911 10.5639 5.35775 10.5855C5.27534 10.6286 5.15824 10.6829 5.01649 10.7294C4.73616 10.8214 4.33835 10.8898 3.91867 10.7559C3.57051 10.6448 3.28075 10.348 3.09568 10.1216C2.99841 10.0027 2.91973 9.89014 2.8653 9.80735C2.83798 9.76579 2.81648 9.73129 2.80153 9.70667C2.79405 9.69436 2.78819 9.68448 2.78403 9.67741L2.77909 9.66891L2.77759 9.66632L2.77709 9.66544L2.77676 9.66486C2.77672 9.66479 2.77676 9.66486 3.02601 9.50693C2.89879 9.23102 2.89874 9.23105 2.89879 9.23102L2.89933 9.23075L2.90018 9.23031L2.90284 9.22896L2.91186 9.22443C2.91949 9.22063 2.93029 9.21531 2.94398 9.20873C2.97134 9.19557 3.01034 9.17729 3.05862 9.15596C3.15484 9.11346 3.28959 9.05809 3.44359 9.00691C3.73592 8.90975 4.15698 8.80666 4.51458 8.89248C4.95911 8.99917 5.23673 9.34527 5.39403 9.61992C5.47477 9.76091 5.53078 9.89483 5.5667 9.99328C5.58477 10.0428 5.59806 10.0842 5.60706 10.1141C5.61157 10.1291 5.61502 10.1413 5.61748 10.1502C5.61871 10.1547 5.61969 10.1584 5.62043 10.1612L5.62136 10.1648L5.62169 10.1661L5.62188 10.1668C5.62191 10.1669 5.62193 10.167 5.34097 10.2458ZM5.49702 10.5047L5.34097 10.2458L5.62193 10.167C5.65445 10.2963 5.60392 10.4329 5.49702 10.5047Z" fill="#156319"/>
<path fill-rule="evenodd" clip-rule="evenodd" d="M3.15916 9.44427C3.07579 9.48141 3.02596 9.50701 3.02596 9.50701C3.02596 9.50701 3.473 10.2932 4.00276 10.4622C4.69145 10.682 5.34092 10.2459 5.34092 10.2459C5.34092 10.2459 5.28727 10.0326 5.15483 9.79576C4.93907 9.92513 4.47023 10.148 3.95833 10.0235C3.64933 9.94828 3.35456 9.66904 3.15916 9.44427Z" fill="#33ED3B"/>
<path d="M8.94854 12.7153C9.29753 14.5508 8.17077 16.3374 6.43187 16.7058C4.69297 17.0742 3.0004 15.8848 2.65142 14.0493C2.30244 12.2138 3.42919 10.4272 5.16809 10.0588C6.907 9.69047 8.59956 10.8798 8.94854 12.7153Z" fill="#FE9F81"/>
<path fill-rule="evenodd" clip-rule="evenodd" d="M9.23399 12.6549C9.61457 14.6566 8.38582 16.6049 6.4895 17.0067C4.59318 17.4084 2.7474 16.1114 2.36682 14.1097C1.98625 12.108 3.215 10.1597 5.11132 9.75798C7.00764 9.35626 8.85342 10.6533 9.23399 12.6549ZM6.4323 16.7058C8.1712 16.3374 9.29795 14.5508 8.94897 12.7153C8.59999 10.8798 6.90742 9.69047 5.16852 10.0588C3.42962 10.4272 2.30287 12.2138 2.65185 14.0493C3.00083 15.8848 4.6934 17.0742 6.4323 16.7058Z" fill="#AB442D"/>
<path fill-rule="evenodd" clip-rule="evenodd" d="M7.71884 16.1016C6.75195 16.1486 5.62855 15.3733 4.94489 14.084C4.10225 12.4949 4.23936 10.713 5.23897 10.0448C5.21541 10.0492 5.19183 10.0539 5.16825 10.0589C3.42935 10.4273 2.30259 12.2139 2.65157 14.0494C3.00056 15.8849 4.69312 17.0742 6.43202 16.7059C6.91416 16.6037 7.34923 16.3926 7.71884 16.1016Z" fill="#FF7E6C"/>
<path d="M6.01682 10.3977C6.44114 10.5335 6.62872 11.1882 6.43578 11.86C6.24284 12.5319 5.74244 12.9665 5.31812 12.8307C4.89379 12.6949 4.70621 12.0402 4.89915 11.3683C5.0921 10.6965 5.59249 10.2619 6.01682 10.3977Z" fill="#FEC0AC"/>
<path fill-rule="evenodd" clip-rule="evenodd" d="M5.42951 11.4369C5.58472 11.4802 5.67725 11.6482 5.63618 11.812C5.60815 11.9238 5.60404 12.0295 5.62111 12.1321C5.64886 12.2991 5.54317 12.4581 5.38503 12.4874C5.2269 12.5167 5.0762 12.4052 5.04845 12.2382C5.01614 12.044 5.02561 11.8485 5.07411 11.655C5.11518 11.4912 5.27429 11.3935 5.42951 11.4369Z" fill="white"/>
<path fill-rule="evenodd" clip-rule="evenodd" d="M5.13208 9.97939C5.50846 9.73395 5.94242 9.68747 6.31568 9.73978C6.39526 9.75093 6.45121 9.82807 6.44064 9.91207C6.43008 9.99607 6.357 10.0551 6.27742 10.044C5.95135 9.99827 5.58956 10.0418 5.28487 10.2404C4.98425 10.4365 4.72106 10.7953 4.60719 11.4195C4.37594 12.6869 4.8507 13.7202 5.10571 14.0658C5.15503 14.1326 5.14368 14.229 5.08034 14.2811C5.01701 14.3331 4.92568 14.3212 4.87635 14.2543C4.57981 13.8524 4.07179 12.7313 4.32173 11.3614C4.44844 10.6669 4.75164 10.2275 5.13208 9.97939Z" fill="#AB442D"/>
<path d="M6.11338 16.0034C6.22709 16.1318 6.22062 16.3333 6.09892 16.4533C5.97723 16.5733 5.7864 16.5665 5.67269 16.438C5.55898 16.3096 5.56545 16.1081 5.68714 15.9881C5.80884 15.8681 5.99967 15.8749 6.11338 16.0034Z" fill="#EC6B59"/>
<path d="M7.02256 15.7014C7.13627 15.8298 7.1298 16.0313 7.0081 16.1513C6.88641 16.2713 6.69558 16.2645 6.58187 16.136C6.46816 16.0076 6.47463 15.8061 6.59632 15.6861C6.71802 15.5661 6.90885 15.5729 7.02256 15.7014Z" fill="#EC6B59"/>
<path d="M6.44124 14.9648C6.52948 15.0645 6.52446 15.2208 6.43001 15.3139C6.33557 15.4071 6.18748 15.4018 6.09923 15.3021C6.01099 15.2024 6.01601 15.0461 6.11045 14.9529C6.20489 14.8598 6.35299 14.8651 6.44124 14.9648Z" fill="#EC6B59"/>
<path d="M7.60432 15.4245C7.69257 15.5242 7.68754 15.6805 7.5931 15.7736C7.49866 15.8668 7.35056 15.8615 7.26232 15.7618C7.17408 15.6621 7.1791 15.5058 7.27354 15.4126C7.36798 15.3195 7.51608 15.3248 7.60432 15.4245Z" fill="#EC6B59"/>
<path d="M5.55549 15.193C5.64374 15.2927 5.63871 15.4491 5.54427 15.5422C5.44983 15.6353 5.30174 15.63 5.21349 15.5304C5.12525 15.4307 5.13027 15.2743 5.22471 15.1812C5.31915 15.088 5.46725 15.0934 5.55549 15.193Z" fill="#EC6B59"/>
<path d="M4.32502 14.8884C4.41327 14.988 4.40825 15.1444 4.3138 15.2375C4.21936 15.3307 4.07127 15.3254 3.98302 15.2257C3.89478 15.126 3.8998 14.9697 3.99424 14.8765C4.08868 14.7834 4.23678 14.7887 4.32502 14.8884Z" fill="#EC6B59"/>
<path d="M7.83186 14.615C7.9201 14.7147 7.91508 14.871 7.82064 14.9642C7.7262 15.0573 7.5781 15.052 7.48986 14.9524C7.40161 14.8527 7.40664 14.6963 7.50108 14.6032C7.59552 14.51 7.74362 14.5154 7.83186 14.615Z" fill="#EC6B59"/>
<path d="M5.19221 16.002C5.28046 16.1017 5.27543 16.258 5.18099 16.3512C5.08655 16.4443 4.93845 16.439 4.85021 16.3393C4.76197 16.2396 4.76699 16.0833 4.86143 15.9902C4.95587 15.897 5.10397 15.9023 5.19221 16.002Z" fill="#EC6B59"/>
<path d="M4.88154 15.3164C4.92614 15.3668 4.9236 15.4458 4.87586 15.4928C4.82813 15.5399 4.75328 15.5372 4.70868 15.4869C4.66408 15.4365 4.66662 15.3575 4.71436 15.3104C4.76209 15.2633 4.83694 15.266 4.88154 15.3164Z" fill="#EC6B59"/>
<path d="M3.62568 14.9305C3.67028 14.9809 3.66774 15.0599 3.62001 15.107C3.57227 15.1541 3.49742 15.1514 3.45283 15.101C3.40823 15.0506 3.41076 14.9716 3.4585 14.9245C3.50623 14.8774 3.58108 14.8801 3.62568 14.9305Z" fill="#EC6B59"/>
<path d="M8.24384 15.0476C8.28844 15.098 8.2859 15.177 8.23817 15.224C8.19044 15.2711 8.11559 15.2684 8.07099 15.2181C8.02639 15.1677 8.02893 15.0887 8.07666 15.0416C8.12439 14.9945 8.19924 14.9972 8.24384 15.0476Z" fill="#EC6B59"/>
<path d="M7.16083 14.8077C7.20543 14.8581 7.20289 14.9371 7.15516 14.9842C7.10743 15.0313 7.03258 15.0286 6.98798 14.9782C6.94338 14.9278 6.94592 14.8488 6.99365 14.8017C7.04138 14.7546 7.11623 14.7573 7.16083 14.8077Z" fill="#EC6B59"/>
<path d="M8.41474 14.3856C8.45934 14.436 8.4568 14.515 8.40907 14.5621C8.36134 14.6091 8.28649 14.6065 8.24189 14.5561C8.19729 14.5057 8.19983 14.4267 8.24756 14.3796C8.29529 14.3325 8.37014 14.3352 8.41474 14.3856Z" fill="#EC6B59"/>
<path d="M4.44714 15.5664C4.52079 15.6496 4.5166 15.7801 4.43777 15.8578C4.35895 15.9356 4.23534 15.9311 4.16168 15.8479C4.08803 15.7647 4.09222 15.6342 4.17105 15.5565C4.24987 15.4787 4.37348 15.4832 4.44714 15.5664Z" fill="#EC6B59"/>
</svg>
