<svg width="11" height="12" viewBox="0 0 11 12" fill="none" xmlns="http://www.w3.org/2000/svg">
<path d="M9.9873 1.18555H7.46045L7.24988 0.806519C7.16565 0.638062 6.99719 0.511719 6.80768 0.511719H4.38611C4.19659 0.511719 4.02814 0.638062 3.94391 0.806519L3.75439 1.18555H1.22754C1.03802 1.18555 0.890625 1.354 0.890625 1.52246V2.19629C0.890625 2.3858 1.03802 2.5332 1.22754 2.5332H9.9873C10.1558 2.5332 10.3242 2.3858 10.3242 2.19629V1.52246C10.3242 1.354 10.1558 1.18555 9.9873 1.18555ZM2.00665 10.3454C2.02771 10.8929 2.46991 11.293 3.0174 11.293H8.17639C8.72388 11.293 9.16608 10.8929 9.18713 10.3454L9.65039 3.20703H1.56445L2.00665 10.3454Z" fill="#868E96"/>
</svg>
